<?xml version="1.0" encoding="UTF-8" standalone="no"?>
<!-- Created with Inkscape (http://www.inkscape.org/) -->

<svg
   width="1234"
   height="154"
   viewBox="0 0 1234 154"
   version="1.1"
   id="svg1"
   sodipodi:docname="Logo-Text.svg"
   inkscape:version="1.3.2 (091e20e, 2023-11-25, custom)"
   xmlns:inkscape="http://www.inkscape.org/namespaces/inkscape"
   xmlns:sodipodi="http://sodipodi.sourceforge.net/DTD/sodipodi-0.dtd"
   xmlns="http://www.w3.org/2000/svg"
   xmlns:svg="http://www.w3.org/2000/svg">
  <sodipodi:namedview
     id="namedview1"
     pagecolor="#ffffff"
     bordercolor="#000000"
     borderopacity="0.25"
     inkscape:showpageshadow="2"
     inkscape:pageopacity="0.0"
     inkscape:pagecheckerboard="0"
     inkscape:deskcolor="#d1d1d1"
     inkscape:zoom="3.3225284"
     inkscape:cx="1167.0329"
     inkscape:cy="72.384634"
     inkscape:window-width="1920"
     inkscape:window-height="1009"
     inkscape:window-x="-8"
     inkscape:window-y="-8"
     inkscape:window-maximized="1"
     inkscape:current-layer="svg1" />
  <defs
     id="defs1">
    <linearGradient
       id="swatch4">
      <stop
         style="stop-color:#000000;stop-opacity:1;"
         offset="0"
         id="stop4" />
    </linearGradient>
  </defs>
  <g
     id="layer1"
     transform="translate(-451.25189,-442.54425)">
    <path
       style="font-size:192px;font-family:MisakiMincho;-inkscape-font-specification:MisakiMincho;fill:#ffffff;stroke:#000000;stroke-width:10;stroke-linecap:square;paint-order:markers stroke fill"
       d="m 456.25189,591.54425 v -144 h 24 v 48 h 24 v 24 h -24 v 72 z m 48,0 v -72 h 24 v 72 z m 0,-96 v -48 h 24 v 48 z m 48,96 v -144 h 24 v 120 h 24 v -120 h 24 v 144 z m 96,0 v -144 h 48 v 24 h -24 v 48 h 24 v 24 h -24 v 48 z m 48,0 v -48 h 24 v 48 z m 0,-72 v -48 h 24 v 48 z m 48,72 v -120 h 24 v 48 h 24 v -48 h 24 v 120 h -24 v -48 h -24 v 48 z m 24,-120 v -24 h 24 v 24 z m 72,96 v -96 h 24 v 96 z m 24,24 v -24 h 24 v -48 h 24 v 72 z m 0,-120 v -24 h 48 v 24 z m 72,120 v -144 h 72.00001 v 24 h -48.00001 v 24 h 24 v 24 h -24 v 48 h 48.00001 v 24 z m 192.00001,0 v -24 h 48 v -48 h -24 v -24 h 24 v 24 h 24 v 48 h -24 v 24 z m 0,-96 v -24 h 24 v 24 z m 24,-24 v -24 h 48 v 24 z m 72,0 v -24 h 72 v 24 h -24 v 120 h -24 v -120 z m 96,120 v -144 h 24 v 120 h 24 v -120 h 24 v 144 z m 96,0 v -144 h 48 v 24 h -24 v 96 h 24 v 24 z m 48,-24 v -96 h 24 v 96 z m 48,24 v -24 h 24 v -96 h -24 v -24 h 72 v 24 h -24 v 96 h 24 v 24 z m 96,-24 v -96 h 24 v 96 z m 24,24 v -24 h 24 v 24 z m 0,-120 v -24 h 24 v 24 z m 24,96 v -96 h 24 v 96 z"
       id="text1"
       aria-label="KURAGE STUDIO" />
  </g>
</svg>
