<?xml version="1.0" encoding="UTF-8" standalone="no"?>
<svg
   viewBox="0 0 384 512"
   version="1.1"
   id="svg1"
   sodipodi:docname="ZIP.svg"
   inkscape:version="1.3.2 (091e20e, 2023-11-25, custom)"
   xmlns:inkscape="http://www.inkscape.org/namespaces/inkscape"
   xmlns:sodipodi="http://sodipodi.sourceforge.net/DTD/sodipodi-0.dtd"
   xmlns="http://www.w3.org/2000/svg"
   xmlns:svg="http://www.w3.org/2000/svg">
  <defs
     id="defs1" />
  <sodipodi:namedview
     id="namedview1"
     pagecolor="#ffffff"
     bordercolor="#000000"
     borderopacity="0.25"
     inkscape:showpageshadow="2"
     inkscape:pageopacity="0.0"
     inkscape:pagecheckerboard="0"
     inkscape:deskcolor="#d1d1d1"
     inkscape:zoom="1.5878906"
     inkscape:cx="191.76384"
     inkscape:cy="256"
     inkscape:window-width="1920"
     inkscape:window-height="1009"
     inkscape:window-x="-8"
     inkscape:window-y="-8"
     inkscape:window-maximized="1"
     inkscape:current-layer="svg1" />
  <!--!Font Awesome Free 6.5.2 by @fontawesome - https://fontawesome.com License - https://fontawesome.com/license/free Copyright 2024 Fonticons, Inc.-->
  <path
     d="M 64,0 C 28.7,0 0,28.7 0,64 v 384 c 0,35.3 28.7,64 64,64 h 256 c 35.3,0 64,-28.7 64,-64 V 160 H 256 c -17.7,0 -32,-14.3 -32,-32 V 0 Z M 256,0 V 128 H 384 Z M 96,48 c 0,-8.8 7.2,-16 16,-16 h 32 c 8.8,0 16,7.2 16,16 0,8.8 -7.2,16 -16,16 H 112 C 103.2,64 96,56.8 96,48 Z m 0,64 c 0,-8.8 7.2,-16 16,-16 h 32 c 8.8,0 16,7.2 16,16 0,8.8 -7.2,16 -16,16 h -32 c -8.8,0 -16,-7.2 -16,-16 z m 0,64 c 0,-8.8 7.2,-16 16,-16 h 32 c 8.8,0 16,7.2 16,16 0,8.8 -7.2,16 -16,16 h -32 c -8.8,0 -16,-7.2 -16,-16 z m -6.3,71.8 c 3.7,-14 16.4,-23.8 30.9,-23.8 h 14.8 c 14.5,0 27.2,9.7 30.9,23.8 l 23.5,88.2 c 1.4,5.4 2.1,10.9 2.1,16.4 0,35.2 -28.8,63.7 -64,63.7 -35.2,0 -64,-28.5 -64,-63.7 0,-5.5 0.7,-11.1 2.1,-16.4 L 89.5,247.8 Z M 112,336 c -8.8,0 -16,7.2 -16,16 0,8.8 7.2,16 16,16 h 32 c 8.8,0 16,-7.2 16,-16 0,-8.8 -7.2,-16 -16,-16 z"
     id="path1"
     style="fill:#ffffff" />
</svg>
